<?xml version="1.0" encoding="UTF-8" standalone="no"?><!DOCTYPE svg PUBLIC "-//W3C//DTD SVG 1.1//EN" "http://www.w3.org/Graphics/SVG/1.1/DTD/svg11.dtd"><svg width="100%" height="100%" viewBox="0 0 900 900" version="1.1" xmlns="http://www.w3.org/2000/svg" xmlns:xlink="http://www.w3.org/1999/xlink" xml:space="preserve" style="fill-rule:evenodd;clip-rule:evenodd;stroke-linejoin:round;stroke-miterlimit:1.41421;"><rect id="Color" x="0" y="0" width="900" height="900" style="fill:none;"/><g><path d="M105.896,644.539l0,-322.961l41.462,24.004l0,281.5l198.577,111.291l0,-48.008l-154.934,-91.651l-2.182,-277.136l-82.923,-45.826c-8.68,-23.056 0.209,-34.853 24.004,-37.096l100.38,58.918l-2.182,277.136l135.295,82.922l41.461,-26.186l-133.113,-80.74l0,-274.954l-102.074,-61.948l214.212,-123.536l-0.487,45.338l-129.236,78.558l39.407,22.309l133.112,-76.376l0,-100.379c14.347,-15.077 28.88,-17.75 43.644,0l0,122.201l-150.57,91.651l0,48.008l126.566,-74.194l0,45.826l-126.566,78.558l0,154.934l124.384,76.376l0,57.722l-58.919,36.111l-2.182,115.655l-277.136,-168.027Z" style="fill:url(#_Linear1);"/><path d="M794.104,255.461l0,322.961l-41.462,-24.004l0,-281.5l-198.577,-111.291l0,48.008l154.934,91.651l2.182,277.136l82.923,45.826c8.68,23.056 -0.209,34.853 -24.004,37.096l-100.38,-58.918l2.182,-277.136l-135.295,-82.922l-41.461,26.186l133.113,80.74l0,274.954l102.074,61.948l-214.212,123.536l0.487,-45.338l129.236,-78.558l-39.407,-22.309l-133.112,76.376l0,100.379c-14.347,15.077 -28.88,17.75 -43.644,0l0,-122.201l150.57,-91.651l0,-48.008l-126.566,74.194l0,-45.826l126.566,-78.558l0,-154.934l-124.384,-76.376l0,-57.722l58.919,-36.111l2.182,-115.655l277.136,168.027Z" style="fill:url(#_Linear2);"/></g><defs><linearGradient id="_Linear1" x1="0" y1="0" x2="1" y2="0" gradientUnits="userSpaceOnUse" gradientTransform="matrix(694.723,5.68434e-14,-5.68434e-14,694.723,102.639,450)"><stop offset="0" style="stop-color:#f2582c;stop-opacity:1"/><stop offset="1" style="stop-color:#e30186;stop-opacity:1"/></linearGradient><linearGradient id="_Linear2" x1="0" y1="0" x2="1" y2="0" gradientUnits="userSpaceOnUse" gradientTransform="matrix(694.723,5.68434e-14,-5.68434e-14,694.723,102.639,450)"><stop offset="0" style="stop-color:#f2582c;stop-opacity:1"/><stop offset="1" style="stop-color:#e30186;stop-opacity:1"/></linearGradient></defs></svg>
